<svg width="32px" height="32px">
  <g fill="#365279">
    <path d="M13.95 16.21c4.81,0 6.54,-4.25 6.99,-7.74 0.56,-4.3 -1.74,-7.53 -6.99,-7.53 -5.24,0 -7.55,3.23 -6.99,7.53 0.45,3.49 2.18,7.74 6.99,7.74z" />
    <path d="M24.47 17.97c0.15,0 0.3,0.01 0.46,0.01 -0.23,-0.28 -0.5,-0.54 -0.81,-0.74 -0.92,-0.61 -2.12,-0.81 -3.18,-1.18 -0.51,-0.17 -0.97,-0.35 -1.4,-0.55 -1.46,1.41 -3.37,2.15 -5.59,2.15 -2.22,0 -4.12,-0.74 -5.58,-2.15 -0.44,0.2 -0.9,0.38 -1.41,0.55 -1.06,0.37 -2.26,0.57 -3.18,1.18 -1.6,1.05 -2.01,3.42 -2.34,5.03 -0.26,1.33 -0.44,2.69 -0.5,4.05 -0.04,1.05 0.55,1.19 1.54,1.51 1.25,0.39 2.54,0.69 3.83,0.93 2.5,0.47 5.08,0.82 7.64,0.84 1.25,-0.01 2.49,-0.1 3.73,-0.24 -0.92,-1.17 -1.46,-2.59 -1.46,-4.12 0,-4.01 3.7,-7.27 8.25,-7.27z" />
    <path d="M28.8 23.26l-2.83 0 0 -2.75c0,-0.77 -0.63,-1.38 -1.41,-1.38 -0.78,0 -1.41,0.61 -1.41,1.38l0 2.75 -2.83 0c-0.78,0 -1.41,0.62 -1.41,1.38 0,0.76 0.63,1.38 1.41,1.38l2.83 0 0 2.76c0,0.76 0.63,1.38 1.41,1.38 0.78,0 1.41,-0.62 1.41,-1.38l0 -2.76 2.83 0c0.78,0 1.41,-0.62 1.41,-1.38 0,-0.76 -0.63,-1.38 -1.41,-1.38z" />
  </g>
</svg>