<?xml version="1.0" encoding="UTF-8"?>
<!DOCTYPE svg PUBLIC "-//W3C//DTD SVG 1.1//EN" "http://www.w3.org/Graphics/SVG/1.1/DTD/svg11.dtd">
<svg xmlns="http://www.w3.org/2000/svg" width="32px" height="32px" >
  <path style="fill: #365279" d="M19.32 12.68c0.23,0.23 0.59,0.31 0.9,0.17l8.12 -3.48c0.25,-0.1 0.43,-0.33 0.49,-0.6 0.05,-0.26 -0.04,-0.54 -0.23,-0.73l-1.74 -1.74 2.9 -2.9c0.28,-0.28 0.32,-0.72 0.1,-1.04 -0.22,-0.32 -0.64,-0.45 -1,-0.3l-8.12 3.48c-0.26,0.11 -0.44,0.34 -0.49,0.6 -0.05,0.27 0.04,0.55 0.23,0.74l1.74 1.74 -2.9 2.9c-0.32,0.32 -0.33,0.83 0,1.16z" />
  <path style="fill: #365279" d="M13.24 3.68l-2.9 2.9 4.64 4.64 2.9 -2.9c0.32,-0.32 0.32,-0.84 0,-1.16l-3.48 -3.48c-0.32,-0.32 -0.84,-0.32 -1.16,0z" />
  <path style="fill: #365279" d="M28.32 18.76c0.32,-0.32 0.32,-0.84 0,-1.16l-3.48 -3.48c-0.32,-0.32 -0.84,-0.32 -1.16,0l-2.9 2.9 4.64 4.64 2.9 -2.9z" />
  <path style="fill: #365279" d="M20.2 26.88l4.06 -4.06 -4.64 -4.64 -4.06 4.06c-1.6,1.6 -4.2,1.6 -5.8,0 -1.6,-1.6 -1.6,-4.2 0,-5.8l4.06 -4.06 -4.64 -4.64 -4.06 4.06c-4.16,4.16 -4.16,10.92 0,15.08 4.16,4.16 10.92,4.16 15.08,0z" />
</svg>