<svg width="32px" height="32px">
  <g fill="#365279">
    <path d="M14.29 22.72l0.36 -1.5c0.04,-0.17 0.13,-0.32 0.25,-0.43 -0.04,-0.03 -0.07,-0.06 -0.11,-0.09l-3.23 -2.67 -1.96 0.46c-3.33,0.78 -5.68,3.59 -5.68,6.82l0 4.23c0,0.83 0.74,1.5 1.63,1.5l8.32 0 1.27 -7.23c-0.57,-0.01 -0.99,-0.54 -0.85,-1.09z"/>
    <path d="M22.44 18.49l-1.94 -0.46 -3.23 2.67c-0.03,0.03 -0.07,0.06 -0.11,0.09 0.13,0.11 0.21,0.26 0.26,0.43l0.36 1.5c0.13,0.55 -0.28,1.08 -0.86,1.09l1.27 7.23 8.32 0c0.89,0 1.57,-0.66 1.57,-1.5l0 -4.23c0,-3.23 -2.32,-6.04 -5.64,-6.82z"/>
    <path d="M9.15 9.65c0,4.8 3.07,8.69 6.85,8.69 3.79,0 6.85,-3.89 6.85,-8.69 0,-4.8 -3.06,-8.69 -6.85,-8.69 -3.78,0 -6.85,3.89 -6.85,8.69z"/>
  </g>
</svg>