<svg width="32px" height="32px">
  <g fill="#365279">
    <path d="M11.74 13.63c-0.21,0.23 -0.45,0.32 -0.79,0.37l0 -2.48c0.41,0.18 0.68,0.37 0.86,0.55 0.13,0.18 0.24,0.45 0.24,0.78 -0.04,0.32 -0.14,0.59 -0.31,0.78zm-1.47 -6.48c-0.31,0.04 -0.55,0.18 -0.72,0.36 -0.18,0.24 -0.28,0.51 -0.28,0.79 0,0.32 0.07,0.54 0.21,0.73 0.13,0.18 0.41,0.37 0.79,0.55l0 -2.43 0 0zm16.09 5.24l0 15.27c0,1.88 -1.13,3.4 -2.54,3.4l-15.64 0c-1.4,0 -2.53,-1.52 -2.53,-3.4l0 -23.32c0,-1.88 1.13,-3.4 2.53,-3.4l9.79 0c0.99,0 1.47,0.37 2.09,1.24l5.34 7.27c0.72,0.91 0.96,1.51 0.96,2.94zm-11.26 -3.4l3.76 0c0.45,0 0.79,-0.46 0.79,-1.02l0 -0.78c0,-0.55 -0.34,-1.01 -0.79,-1.01l-3.76 0 0 2.81zm-4.83 2.3l0 2.71c-0.62,-0.14 -1.2,-0.51 -1.78,-1.2l-0.76 1.2c0.76,0.87 1.62,1.38 2.54,1.52l0 1 0.65 0 0 -1.01c0.72,-0.05 1.26,-0.32 1.71,-0.83 0.41,-0.5 0.65,-1.19 0.65,-1.97 0,-0.83 -0.17,-1.43 -0.55,-1.84 -0.38,-0.42 -0.96,-0.79 -1.75,-1.02l-0.03 0 0 -2.62c0.55,0.09 1.03,0.41 1.47,0.83l0.68 -1.29c-0.68,-0.6 -1.4,-0.97 -2.15,-1.01l0 -0.78 -0.65 0 0 0.69c-0.65,0.04 -1.2,0.32 -1.61,0.82 -0.41,0.51 -0.65,1.2 -0.65,1.98 0,0.78 0.2,1.38 0.55,1.84 0.34,0.38 0.89,0.74 1.68,0.98zm14.07 14.89c0,-0.55 -0.34,-1.01 -0.79,-1.01l-15.17 0c-0.44,0 -0.75,0.46 -0.75,1.01l0 0.78c0,0.55 0.34,1.02 0.75,1.02l15.17 0c0.41,0 0.79,-0.46 0.79,-1.02l0 -0.78 0 0zm0 -6.34c0,-0.55 -0.34,-1.02 -0.79,-1.02l-15.17 0c-0.44,0 -0.75,0.46 -0.75,1.02l0 0.78c0,0.54 0.34,1.01 0.75,1.01l15.17 0c0.41,0 0.79,-0.46 0.79,-1.01l0 -0.78 0 0zm0 -6.35c0,-0.55 -0.34,-1.02 -0.79,-1.02l-8.45 0 0 2.81 8.45 0c0.41,0 0.79,-0.46 0.79,-1.02l0 -0.77 0 0z"/>
  </g>
</svg>