<?xml version="1.0"?>
<svg xmlns="http://www.w3.org/2000/svg" xmlns:xlink="http://www.w3.org/1999/xlink" xmlns:svgjs="http://svgjs.com/svgjs" version="1.1" width="512" height="512" x="0" y="0" viewBox="0 0 512 512" style="enable-background:new 0 0 512 512" xml:space="preserve" class=""><g><g xmlns="http://www.w3.org/2000/svg"><path d="m377 136c-8.271 0-15-6.729-15-15s6.729-15 15-15c6.045 0 11.473 3.598 13.827 9.166l27.631-11.687c-7.062-16.693-23.334-27.479-41.458-27.479-24.813 0-45 20.187-45 45s20.187 45 45 45c8.271 0 15 6.729 15 15s-6.729 15-15 15c-6.045 0-11.473-3.598-13.827-9.166l-27.631 11.687c7.062 16.693 23.334 27.479 41.458 27.479 24.813 0 45-20.187 45-45s-20.187-45-45-45z" fill="#365279" data-original="#000000" style="" class=""/><path d="m512 151c0-74.439-60.561-135-135-135s-135 60.561-135 135c0 5.07.291 10.073.838 15h-61.838c-21.066 0-41.295 4.27-60.253 12.706-15.386-8.335-32.376-12.706-49.615-12.706h-45.944l25.684 77.053c-2.566 4.462-4.778 8.738-6.695 12.947h-44.177v120h44.094c11.719 26.646 31.193 49.635 55.668 65.479 13.299 8.609 21.238 23.191 21.238 39.006v15.515h90v-30h90v30h90v-15c0-25.104 8.882-49.523 25.01-68.76 35.094-41.857 43.131-97.376 27.164-143.608 41.048-23.184 68.826-67.222 68.826-117.632zm-118.979 241.966c-17.418 20.776-28.235 46.272-31.193 73.034h-30.828v-33.285c-.108.014-28.95 3.285-30 3.285h-120v30h-31.37c-3.88-20.263-15.823-38.219-33.565-49.704-41.039-26.568-48.925-65.911-51.211-70.296h-34.854v-60h34.853l3.547-9.975c4.94-13.898 12.83-24.911 15.342-29.233l-16.93-50.792h4.32c27.237 0 44.028 15.01 47.986 17.006 4.862-1.933 26.457-17.006 61.882-17.006h68.722c18.574 52.38 68.611 90 127.278 90 13.36 0 26.27-1.96 38.466-5.592 11.901 36.666 4.851 80.001-22.445 112.558zm-16.021-136.966c-57.897 0-105-47.103-105-105s47.103-105 105-105 105 47.103 105 105-47.103 105-105 105z" fill="#365279" data-original="#000000" style="" class=""/><path d="m121 256h30v30h-30z" fill="#365279" data-original="#000000" style="" class=""/></g></g></svg>
