<?xml version="1.0"?>
<svg xmlns="http://www.w3.org/2000/svg" xmlns:xlink="http://www.w3.org/1999/xlink" xmlns:svgjs="http://svgjs.com/svgjs" version="1.1" width="512" height="512" x="0" y="0" viewBox="0 0 512 512" style="enable-background:new 0 0 512 512" xml:space="preserve" class=""><g><g xmlns="http://www.w3.org/2000/svg"><g><path d="m377 16c-74.44 0-135 60.56-135 135s60.56 135 135 135 135-60.56 135-135-60.56-135-135-135zm0 210c-18.12 0-34.4-10.79-41.46-27.48l27.63-11.69c2.36 5.57 7.79 9.17 13.83 9.17 8.27 0 15-6.73 15-15s-6.73-15-15-15c-24.81 0-45-20.19-45-45s20.19-45 45-45c18.12 0 34.4 10.79 41.46 27.48l-27.63 11.69c-2.36-5.57-7.78-9.17-13.83-9.17-8.27 0-15 6.73-15 15s6.73 15 15 15c24.81 0 45 20.19 45 45s-20.19 45-45 45z" fill="#365279" data-original="#000000" style="" class=""/></g><path d="m450.04 298.94c-22.03 10.92-46.83 17.06-73.04 17.06-85.92 0-156.72-66.02-164.33-150h-31.67c-21.07 0-41.29 4.27-60.25 12.71-15.39-8.34-32.38-12.71-49.62-12.71h-45.94l25.68 77.05c-2.56 4.47-4.78 8.74-6.69 12.95h-44.18v120h44.09c11.72 26.65 31.2 49.64 55.67 65.48 13.3 8.61 21.24 23.19 21.24 39v15.52h90v-30h90v30h90v-15c0-25.1 8.88-49.52 25.01-68.76 27.47-32.76 38.58-74.15 34.03-113.3zm-299.04-12.94h-30v-30h30z" fill="#365279" data-original="#000000" style="" class=""/></g></g></svg>
