<?xml version="1.0" encoding="UTF-8"?>
<!DOCTYPE svg PUBLIC "-//W3C//DTD SVG 1.1//EN" "http://www.w3.org/Graphics/SVG/1.1/DTD/svg11.dtd">
<svg xmlns="http://www.w3.org/2000/svg" width="32px" height="32px" >
  <path style="fill: #365279" d="M13.74 9.91l4.28 0c1.24,-0.73 2.07,-2.08 2.07,-3.63 0,-2.32 -1.88,-4.2 -4.21,-4.2 -2.32,0 -4.2,1.88 -4.2,4.2 0,1.55 0.83,2.9 2.06,3.63l0 0z" />
  <path style="fill: #365279" d="M30.43 13.69c-0.54,-0.23 -1.07,-0.46 -1.6,-0.69l-0.61 -0.26c-0.66,-1.21 -1.62,-2.32 -2.81,-3.24l0 -3.71c0,-0.49 -0.39,-0.88 -0.88,-0.88 -1.01,0 -1.95,0.34 -2.7,0.93 0.01,0.15 0.01,0.3 0.01,0.44 0,1.51 -0.58,2.95 -1.57,4.04 0.11,0.15 0.17,0.33 0.17,0.52 0,0.49 -0.39,0.88 -0.88,0.88l-7.36 0c-0.48,0 -0.87,-0.39 -0.87,-0.88 0,-0.19 0.06,-0.37 0.17,-0.52 -0.62,-0.67 -1.07,-1.48 -1.33,-2.36 -0.94,0.43 -1.81,0.96 -2.6,1.58 -1.93,1.53 -3.18,3.45 -3.63,5.55 -0.7,-0.38 -1.15,-1.11 -1.15,-1.94 0,-0.38 0.1,-0.75 0.28,-1.08 0.24,-0.42 0.09,-0.95 -0.34,-1.19 -0.42,-0.23 -0.95,-0.08 -1.19,0.34 -0.33,0.59 -0.5,1.26 -0.5,1.93 0,1.72 1.09,3.22 2.71,3.77 0.02,3.04 1.68,5.86 4.57,7.8 0.34,1.51 0.69,3.02 1.04,4.52 0.09,0.4 0.45,0.68 0.85,0.68l2.87 0c0.41,0 0.76,-0.28 0.85,-0.68l0.53 -2.26c1.37,0.18 2.79,0.18 4.16,0 0.17,0.75 0.35,1.51 0.52,2.26 0.09,0.4 0.45,0.68 0.86,0.68l2.86 0c0.41,0 0.76,-0.28 0.85,-0.68l0.32 -1.35c0.24,-1.06 0.49,-2.13 0.74,-3.19 1.48,-1.01 2.67,-2.29 3.45,-3.72l0.66 -0.28c0.52,-0.22 1.03,-0.44 1.55,-0.66 0.32,-0.14 0.53,-0.46 0.53,-0.81l0 -4.73c0,-0.36 -0.21,-0.67 -0.53,-0.81l0 0zm-7.07 2.09c-0.48,0 -0.87,-0.39 -0.87,-0.88 0,-0.48 0.39,-0.87 0.87,-0.87 0.49,0 0.88,0.39 0.88,0.87 0,0.49 -0.39,0.88 -0.88,0.88z" />
</svg>